<svg id="visual" viewBox="0 0 900 600" width="900" height="600" xmlns="http://www.w3.org/2000/svg" xmlns:xlink="http://www.w3.org/1999/xlink" version="1.1"><rect width="900" height="600" fill="#000000"></rect><g><g transform="translate(94 237)"><path d="M79.8 -94.7C104.5 -74.4 126.4 -50.3 132.2 -22.6C137.9 5.1 127.4 36.3 110.8 63.1C94.3 90 71.7 112.5 44.7 122.1C17.6 131.6 -13.9 128.2 -44.5 118.6C-75.1 109.1 -104.7 93.3 -121 68.3C-137.2 43.3 -140.1 9.1 -131.6 -20.4C-123.1 -49.9 -103.2 -74.6 -79.4 -95.1C-55.6 -115.6 -27.8 -131.9 -0.1 -131.7C27.5 -131.6 55.1 -115 79.8 -94.7Z" fill="#007BFC"></path></g><g transform="translate(888 278)"><path d="M56.4 -69.5C70.4 -55.5 77.2 -35.2 80.2 -14.7C83.1 5.8 82.2 26.4 72.6 41C63.1 55.6 44.8 64.3 25.6 72.2C6.3 80 -14 87 -29.7 81.4C-45.4 75.7 -56.5 57.4 -66.5 39C-76.5 20.5 -85.3 2 -83.9 -16.4C-82.6 -34.8 -71.2 -53 -55.5 -66.7C-39.9 -80.4 -19.9 -89.5 0.6 -90.3C21.2 -91 42.4 -83.4 56.4 -69.5Z" fill="#007BFC"></path></g><g transform="translate(444 70)"><path d="M65.9 -74.8C86.1 -61.6 103.6 -41.5 108.8 -18.3C114.1 5 107 31.3 92.6 51C78.3 70.7 56.8 83.7 33.8 91.4C10.9 99.1 -13.5 101.6 -34.1 93.9C-54.7 86.3 -71.5 68.6 -82.5 48.3C-93.4 27.9 -98.6 4.8 -96.3 -18.5C-93.9 -41.7 -84.1 -65.1 -66.8 -78.8C-49.5 -92.4 -24.8 -96.3 -1 -95.2C22.9 -94.1 45.7 -87.9 65.9 -74.8Z" fill="#007BFC"></path></g></g></svg>