<svg id="visual" viewBox="0 0 900 600" width="900" height="600" xmlns="http://www.w3.org/2000/svg" xmlns:xlink="http://www.w3.org/1999/xlink" version="1.1"><rect x="0" y="0" width="900" height="600" fill="#00194D"></rect><path d="M0 252L13.7 257C27.3 262 54.7 272 82 276.5C109.3 281 136.7 280 163.8 287.7C191 295.3 218 311.7 245.2 315.7C272.3 319.7 299.7 311.3 327 302C354.3 292.7 381.7 282.3 409 288.7C436.3 295 463.7 318 491 332.3C518.3 346.7 545.7 352.3 573 345.8C600.3 339.3 627.7 320.7 654.8 313.5C682 306.3 709 310.7 736.2 302.2C763.3 293.7 790.7 272.3 818 265.3C845.3 258.3 872.7 265.7 886.3 269.3L900 273L900 601L886.3 601C872.7 601 845.3 601 818 601C790.7 601 763.3 601 736.2 601C709 601 682 601 654.8 601C627.7 601 600.3 601 573 601C545.7 601 518.3 601 491 601C463.7 601 436.3 601 409 601C381.7 601 354.3 601 327 601C299.7 601 272.3 601 245.2 601C218 601 191 601 163.8 601C136.7 601 109.3 601 82 601C54.7 601 27.3 601 13.7 601L0 601Z" fill="#007bfc"></path><path d="M0 372L13.7 372.2C27.3 372.3 54.7 372.7 82 372.2C109.3 371.7 136.7 370.3 163.8 363C191 355.7 218 342.3 245.2 341.5C272.3 340.7 299.7 352.3 327 357C354.3 361.7 381.7 359.3 409 365.5C436.3 371.7 463.7 386.3 491 378.7C518.3 371 545.7 341 573 333C600.3 325 627.7 339 654.8 351.7C682 364.3 709 375.7 736.2 373.7C763.3 371.7 790.7 356.3 818 348.5C845.3 340.7 872.7 340.3 886.3 340.2L900 340L900 601L886.3 601C872.7 601 845.3 601 818 601C790.7 601 763.3 601 736.2 601C709 601 682 601 654.8 601C627.7 601 600.3 601 573 601C545.7 601 518.3 601 491 601C463.7 601 436.3 601 409 601C381.7 601 354.3 601 327 601C299.7 601 272.3 601 245.2 601C218 601 191 601 163.8 601C136.7 601 109.3 601 82 601C54.7 601 27.3 601 13.7 601L0 601Z" fill="#00a9ff"></path><path d="M0 425L13.7 419.3C27.3 413.7 54.7 402.3 82 401.7C109.3 401 136.7 411 163.8 421.3C191 431.7 218 442.3 245.2 447.8C272.3 453.3 299.7 453.7 327 449.3C354.3 445 381.7 436 409 425.2C436.3 414.3 463.7 401.7 491 402.3C518.3 403 545.7 417 573 418.2C600.3 419.3 627.7 407.7 654.8 400.7C682 393.7 709 391.3 736.2 393C763.3 394.7 790.7 400.3 818 401.2C845.3 402 872.7 398 886.3 396L900 394L900 601L886.3 601C872.7 601 845.3 601 818 601C790.7 601 763.3 601 736.2 601C709 601 682 601 654.8 601C627.7 601 600.3 601 573 601C545.7 601 518.3 601 491 601C463.7 601 436.3 601 409 601C381.7 601 354.3 601 327 601C299.7 601 272.3 601 245.2 601C218 601 191 601 163.8 601C136.7 601 109.3 601 82 601C54.7 601 27.3 601 13.7 601L0 601Z" fill="#00cdf9"></path><path d="M0 471L13.7 471.8C27.3 472.7 54.7 474.3 82 478C109.3 481.7 136.7 487.3 163.8 490.8C191 494.3 218 495.7 245.2 491C272.3 486.3 299.7 475.7 327 472C354.3 468.3 381.7 471.7 409 477.3C436.3 483 463.7 491 491 493C518.3 495 545.7 491 573 484.3C600.3 477.7 627.7 468.3 654.8 469.5C682 470.7 709 482.3 736.2 483.5C763.3 484.7 790.7 475.3 818 470.8C845.3 466.3 872.7 466.7 886.3 466.8L900 467L900 601L886.3 601C872.7 601 845.3 601 818 601C790.7 601 763.3 601 736.2 601C709 601 682 601 654.8 601C627.7 601 600.3 601 573 601C545.7 601 518.3 601 491 601C463.7 601 436.3 601 409 601C381.7 601 354.3 601 327 601C299.7 601 272.3 601 245.2 601C218 601 191 601 163.8 601C136.7 601 109.3 601 82 601C54.7 601 27.3 601 13.7 601L0 601Z" fill="#1de6cb"></path></svg>