<svg id="visual" viewBox="0 0 900 600" width="900" height="600" xmlns="http://www.w3.org/2000/svg" xmlns:xlink="http://www.w3.org/1999/xlink" version="1.1"><path d="M0 115L16.7 113C33.3 111 66.7 107 100 103C133.3 99 166.7 95 200 91C233.3 87 266.7 83 300 85C333.3 87 366.7 95 400 102C433.3 109 466.7 115 500 111C533.3 107 566.7 93 600 86C633.3 79 666.7 79 700 85C733.3 91 766.7 103 800 109C833.3 115 866.7 115 883.3 115L900 115L900 0L883.3 0C866.7 0 833.3 0 800 0C766.7 0 733.3 0 700 0C666.7 0 633.3 0 600 0C566.7 0 533.3 0 500 0C466.7 0 433.3 0 400 0C366.7 0 333.3 0 300 0C266.7 0 233.3 0 200 0C166.7 0 133.3 0 100 0C66.7 0 33.3 0 16.7 0L0 0Z" fill="#007afc"></path><path d="M0 253L16.7 250C33.3 247 66.7 241 100 238C133.3 235 166.7 235 200 225C233.3 215 266.7 195 300 198C333.3 201 366.7 227 400 235C433.3 243 466.7 233 500 220C533.3 207 566.7 191 600 182C633.3 173 666.7 171 700 183C733.3 195 766.7 221 800 234C833.3 247 866.7 247 883.3 247L900 247L900 113L883.3 113C866.7 113 833.3 113 800 107C766.7 101 733.3 89 700 83C666.7 77 633.3 77 600 84C566.7 91 533.3 105 500 109C466.7 113 433.3 107 400 100C366.7 93 333.3 85 300 83C266.7 81 233.3 85 200 89C166.7 93 133.3 97 100 101C66.7 105 33.3 109 16.7 111L0 113Z" fill="#1456bd"></path><path d="M0 403L16.7 407C33.3 411 66.7 419 100 422C133.3 425 166.7 423 200 407C233.3 391 266.7 361 300 358C333.3 355 366.7 379 400 385C433.3 391 466.7 379 500 381C533.3 383 566.7 399 600 403C633.3 407 666.7 399 700 405C733.3 411 766.7 431 800 440C833.3 449 866.7 447 883.3 446L900 445L900 245L883.3 245C866.7 245 833.3 245 800 232C766.7 219 733.3 193 700 181C666.7 169 633.3 171 600 180C566.7 189 533.3 205 500 218C466.7 231 433.3 241 400 233C366.7 225 333.3 199 300 196C266.7 193 233.3 213 200 223C166.7 233 133.3 233 100 236C66.7 239 33.3 245 16.7 248L0 251Z" fill="#0d3582"></path><path d="M0 601L16.7 601C33.3 601 66.7 601 100 601C133.3 601 166.7 601 200 601C233.3 601 266.7 601 300 601C333.3 601 366.7 601 400 601C433.3 601 466.7 601 500 601C533.3 601 566.7 601 600 601C633.3 601 666.7 601 700 601C733.3 601 766.7 601 800 601C833.3 601 866.7 601 883.3 601L900 601L900 443L883.3 444C866.7 445 833.3 447 800 438C766.7 429 733.3 409 700 403C666.7 397 633.3 405 600 401C566.7 397 533.3 381 500 379C466.7 377 433.3 389 400 383C366.7 377 333.3 353 300 356C266.7 359 233.3 389 200 405C166.7 421 133.3 423 100 420C66.7 417 33.3 409 16.7 405L0 401Z" fill="#00184d"></path></svg>