<svg id="visual" viewBox="0 0 900 600" width="900" height="600" xmlns="http://www.w3.org/2000/svg" xmlns:xlink="http://www.w3.org/1999/xlink" version="1.1"><rect x="0" y="0" width="900" height="600" fill="#007BFC"></rect><path d="M0 123L21.5 118.7C43 114.3 86 105.7 128.8 101.7C171.7 97.7 214.3 98.3 257.2 91.5C300 84.7 343 70.3 385.8 73.3C428.7 76.3 471.3 96.7 514.2 107.3C557 118 600 119 642.8 111C685.7 103 728.3 86 771.2 82C814 78 857 87 878.5 91.5L900 96L900 0L878.5 0C857 0 814 0 771.2 0C728.3 0 685.7 0 642.8 0C600 0 557 0 514.2 0C471.3 0 428.7 0 385.8 0C343 0 300 0 257.2 0C214.3 0 171.7 0 128.8 0C86 0 43 0 21.5 0L0 0Z" fill="#000000" stroke-linecap="round" stroke-linejoin="miter"></path></svg>